<svg width="400" height="400" xmlns="http://www.w3.org/2000/svg">
  <g stroke="#ffffff" stroke-width="1.5" fill="none" opacity="0.04" stroke-linecap="round" stroke-linejoin="round">
    <path d="M 50 80 Q 80 50 110 80 L 110 110 Q 80 120 50 110 Z" />
    <path d="M 50 90 L 110 90 M 50 100 L 110 100" />
    <path d="M 230 60 L 220 100 L 260 100 L 250 60 Z" />
    <rect x="225" y="40" width="8" height="25" rx="2" />
    <rect x="235" y="30" width="6" height="35" rx="2" />
    <rect x="245" y="45" width="8" height="20" rx="2" />
    <path d="M 320 220 L 380 200 L 340 160 Z" />
    <path d="M 320 220 Q 330 230 380 200" />
    <circle cx="100" cy="250" r="30" />
    <circle cx="100" cy="250" r="10" />
    <path d="M 180 320 Q 200 300 240 330 Q 220 350 180 320" />
    <path d="M 190 325 Q 210 310 230 325" />
    <polygon points="300,320 340,320 330,380 310,380" />
    <line x1="320" y1="320" x2="330" y2="290" />
    <path d="M 150 150 Q 160 180 180 140 T 200 160" />
    <circle cx="350" cy="80" r="5" fill="#ffffff" />
    <circle cx="50" cy="350" r="3" fill="#ffffff" />
    <path d="M 20 200 Q 30 190 40 210" />
  </g>
</svg>
